<mxfile host="Electron" agent="Mozilla/5.0 (X11; Linux x86_64) AppleWebKit/537.36 (KHTML, like Gecko) draw.io/24.7.8 Chrome/128.0.6613.36 Electron/32.0.1 Safari/537.36" version="24.7.8">
  <diagram name="PÃ¡gina-1" id="oE5SToJG6d0fqBrR_LVp">
    <mxGraphModel dx="607" dy="377" grid="1" gridSize="10" guides="1" tooltips="1" connect="1" arrows="1" fold="1" page="1" pageScale="1" pageWidth="1169" pageHeight="827" math="0" shadow="0">
      <root>
        <mxCell id="0" />
        <mxCell id="1" parent="0" />
        <mxCell id="SnB1N_KesckS_-LBV5Pf-39" value="&lt;i style=&quot;&quot;&gt;&lt;font style=&quot;font-size: 20px;&quot;&gt;USER&lt;/font&gt;&lt;/i&gt;" style="rounded=0;whiteSpace=wrap;html=1;fillColor=none;" parent="1" vertex="1">
          <mxGeometry x="252.5" y="458" width="110" height="80" as="geometry" />
        </mxCell>
        <mxCell id="SnB1N_KesckS_-LBV5Pf-40" value="&lt;i style=&quot;&quot;&gt;&lt;font style=&quot;font-size: 20px;&quot;&gt;ROOM&lt;/font&gt;&lt;/i&gt;" style="rounded=0;whiteSpace=wrap;html=1;fillColor=none;align=center;" parent="1" vertex="1">
          <mxGeometry x="722.5" y="458" width="110" height="80" as="geometry" />
        </mxCell>
        <mxCell id="SnB1N_KesckS_-LBV5Pf-41" value="&lt;i&gt;&lt;font style=&quot;font-size: 16px;&quot;&gt;CREATES&lt;/font&gt;&lt;/i&gt;" style="html=1;whiteSpace=wrap;aspect=fixed;shape=isoRectangle;fillColor=none;" parent="1" vertex="1">
          <mxGeometry x="472.5" y="458" width="133.34" height="80" as="geometry" />
        </mxCell>
        <mxCell id="SnB1N_KesckS_-LBV5Pf-42" value="" style="endArrow=none;html=1;rounded=0;exitX=1;exitY=0.5;exitDx=0;exitDy=0;" parent="1" source="SnB1N_KesckS_-LBV5Pf-39" edge="1">
          <mxGeometry width="50" height="50" relative="1" as="geometry">
            <mxPoint x="372.5" y="498" as="sourcePoint" />
            <mxPoint x="472.5" y="498" as="targetPoint" />
          </mxGeometry>
        </mxCell>
        <mxCell id="SnB1N_KesckS_-LBV5Pf-43" value="" style="endArrow=none;html=1;rounded=0;exitX=1;exitY=0.5;exitDx=0;exitDy=0;entryX=0;entryY=0.5;entryDx=0;entryDy=0;" parent="1" target="SnB1N_KesckS_-LBV5Pf-40" edge="1">
          <mxGeometry width="50" height="50" relative="1" as="geometry">
            <mxPoint x="605.84" y="497.5" as="sourcePoint" />
            <mxPoint x="717.84" y="498.5" as="targetPoint" />
          </mxGeometry>
        </mxCell>
        <mxCell id="SnB1N_KesckS_-LBV5Pf-44" value="&lt;span style=&quot;text-wrap: nowrap;&quot;&gt;Password&lt;/span&gt;" style="ellipse;whiteSpace=wrap;html=1;fillColor=none;" parent="1" vertex="1">
          <mxGeometry x="120" y="518" width="60" height="52" as="geometry" />
        </mxCell>
        <mxCell id="SnB1N_KesckS_-LBV5Pf-45" value="" style="endArrow=none;html=1;rounded=0;entryX=0;entryY=0.75;entryDx=0;entryDy=0;exitX=1;exitY=0.5;exitDx=0;exitDy=0;" parent="1" source="SnB1N_KesckS_-LBV5Pf-44" target="SnB1N_KesckS_-LBV5Pf-39" edge="1">
          <mxGeometry width="50" height="50" relative="1" as="geometry">
            <mxPoint x="202.5" y="564" as="sourcePoint" />
            <mxPoint x="212.5" y="508" as="targetPoint" />
            <Array as="points" />
          </mxGeometry>
        </mxCell>
        <mxCell id="SnB1N_KesckS_-LBV5Pf-46" value="" style="endArrow=none;html=1;rounded=0;entryX=0;entryY=0.346;entryDx=0;entryDy=0;entryPerimeter=0;exitX=1;exitY=0;exitDx=0;exitDy=0;" parent="1" source="SnB1N_KesckS_-LBV5Pf-57" target="SnB1N_KesckS_-LBV5Pf-39" edge="1">
          <mxGeometry width="50" height="50" relative="1" as="geometry">
            <mxPoint x="202.5" y="488" as="sourcePoint" />
            <mxPoint x="253.5" y="485" as="targetPoint" />
            <Array as="points" />
          </mxGeometry>
        </mxCell>
        <mxCell id="SnB1N_KesckS_-LBV5Pf-47" value="" style="endArrow=none;html=1;rounded=0;exitX=1;exitY=0.25;exitDx=0;exitDy=0;entryX=0;entryY=0.5;entryDx=0;entryDy=0;" parent="1" source="SnB1N_KesckS_-LBV5Pf-40" target="SnB1N_KesckS_-LBV5Pf-62" edge="1">
          <mxGeometry width="50" height="50" relative="1" as="geometry">
            <mxPoint x="862.5" y="550" as="sourcePoint" />
            <mxPoint x="927.5" y="465" as="targetPoint" />
            <Array as="points" />
          </mxGeometry>
        </mxCell>
        <mxCell id="SnB1N_KesckS_-LBV5Pf-48" value="" style="endArrow=none;html=1;rounded=0;exitX=1.001;exitY=0.449;exitDx=0;exitDy=0;exitPerimeter=0;entryX=0;entryY=0.5;entryDx=0;entryDy=0;" parent="1" source="SnB1N_KesckS_-LBV5Pf-40" target="SnB1N_KesckS_-LBV5Pf-63" edge="1">
          <mxGeometry width="50" height="50" relative="1" as="geometry">
            <mxPoint x="842.5" y="488" as="sourcePoint" />
            <mxPoint x="912.5055706875576" y="497.76404270964844" as="targetPoint" />
            <Array as="points" />
          </mxGeometry>
        </mxCell>
        <mxCell id="SnB1N_KesckS_-LBV5Pf-49" value="" style="endArrow=none;html=1;rounded=0;entryX=0;entryY=0;entryDx=0;entryDy=0;exitX=1;exitY=0.75;exitDx=0;exitDy=0;" parent="1" source="SnB1N_KesckS_-LBV5Pf-40" target="SnB1N_KesckS_-LBV5Pf-64" edge="1">
          <mxGeometry width="50" height="50" relative="1" as="geometry">
            <mxPoint x="833.5" y="513" as="sourcePoint" />
            <mxPoint x="912.5" y="523" as="targetPoint" />
            <Array as="points" />
          </mxGeometry>
        </mxCell>
        <mxCell id="SnB1N_KesckS_-LBV5Pf-50" value="" style="endArrow=none;html=1;rounded=0;exitX=1.002;exitY=0.115;exitDx=0;exitDy=0;entryX=0;entryY=0.5;entryDx=0;entryDy=0;exitPerimeter=0;" parent="1" source="SnB1N_KesckS_-LBV5Pf-40" target="SnB1N_KesckS_-LBV5Pf-61" edge="1">
          <mxGeometry width="50" height="50" relative="1" as="geometry">
            <mxPoint x="842.5" y="488" as="sourcePoint" />
            <mxPoint x="912.8" y="444.78000000000003" as="targetPoint" />
            <Array as="points" />
          </mxGeometry>
        </mxCell>
        <mxCell id="SnB1N_KesckS_-LBV5Pf-51" value="" style="endArrow=none;html=1;rounded=0;exitX=1;exitY=0.5;exitDx=0;exitDy=0;entryX=0;entryY=0.25;entryDx=0;entryDy=0;" parent="1" source="SnB1N_KesckS_-LBV5Pf-54" target="SnB1N_KesckS_-LBV5Pf-39" edge="1">
          <mxGeometry width="50" height="50" relative="1" as="geometry">
            <mxPoint x="197.5" y="463" as="sourcePoint" />
            <mxPoint x="242.5" y="470" as="targetPoint" />
            <Array as="points">
              <mxPoint x="230" y="440" />
            </Array>
          </mxGeometry>
        </mxCell>
        <mxCell id="SnB1N_KesckS_-LBV5Pf-52" value="(0, n)" style="text;html=1;align=center;verticalAlign=middle;whiteSpace=wrap;rounded=0;" parent="1" vertex="1">
          <mxGeometry x="382.5" y="458" width="60" height="30" as="geometry" />
        </mxCell>
        <mxCell id="SnB1N_KesckS_-LBV5Pf-53" value="(1, 1)" style="text;html=1;align=center;verticalAlign=middle;whiteSpace=wrap;rounded=0;" parent="1" vertex="1">
          <mxGeometry x="632.5" y="458" width="60" height="30" as="geometry" />
        </mxCell>
        <mxCell id="SnB1N_KesckS_-LBV5Pf-54" value="ID" style="ellipse;whiteSpace=wrap;html=1;fillColor=none;" parent="1" vertex="1">
          <mxGeometry x="160" y="407" width="35" height="33" as="geometry" />
        </mxCell>
        <mxCell id="SnB1N_KesckS_-LBV5Pf-55" value="" style="endArrow=none;html=1;rounded=0;strokeWidth=1.5;strokeColor=#00ff00;" parent="1" edge="1">
          <mxGeometry width="50" height="50" relative="1" as="geometry">
            <mxPoint x="172.5" y="430.00000000000006" as="sourcePoint" />
            <mxPoint x="182.5" y="430.00000000000006" as="targetPoint" />
          </mxGeometry>
        </mxCell>
        <mxCell id="SnB1N_KesckS_-LBV5Pf-56" value="Email" style="ellipse;whiteSpace=wrap;html=1;aspect=fixed;fillColor=none;" parent="1" vertex="1">
          <mxGeometry x="172.5" y="478" width="40" height="40" as="geometry" />
        </mxCell>
        <mxCell id="SnB1N_KesckS_-LBV5Pf-57" value="Name" style="ellipse;whiteSpace=wrap;html=1;aspect=fixed;fillColor=none;" parent="1" vertex="1">
          <mxGeometry x="127.5" y="443" width="45" height="45" as="geometry" />
        </mxCell>
        <mxCell id="SnB1N_KesckS_-LBV5Pf-58" style="edgeStyle=orthogonalEdgeStyle;rounded=0;orthogonalLoop=1;jettySize=auto;html=1;exitX=0.5;exitY=1;exitDx=0;exitDy=0;" parent="1" source="SnB1N_KesckS_-LBV5Pf-57" target="SnB1N_KesckS_-LBV5Pf-57" edge="1">
          <mxGeometry relative="1" as="geometry" />
        </mxCell>
        <mxCell id="SnB1N_KesckS_-LBV5Pf-59" value="" style="endArrow=none;html=1;rounded=0;strokeWidth=1.5;strokeColor=#00ff00;" parent="1" edge="1">
          <mxGeometry width="50" height="50" relative="1" as="geometry">
            <mxPoint x="187.5" y="510" as="sourcePoint" />
            <mxPoint x="198" y="510" as="targetPoint" />
          </mxGeometry>
        </mxCell>
        <mxCell id="SnB1N_KesckS_-LBV5Pf-60" value="" style="endArrow=none;html=1;rounded=0;entryX=-0.004;entryY=0.596;entryDx=0;entryDy=0;entryPerimeter=0;exitX=1;exitY=0;exitDx=0;exitDy=0;" parent="1" source="SnB1N_KesckS_-LBV5Pf-56" target="SnB1N_KesckS_-LBV5Pf-39" edge="1">
          <mxGeometry width="50" height="50" relative="1" as="geometry">
            <mxPoint x="162.5" y="540" as="sourcePoint" />
            <mxPoint x="212.5" y="490" as="targetPoint" />
          </mxGeometry>
        </mxCell>
        <mxCell id="SnB1N_KesckS_-LBV5Pf-61" value="ID" style="ellipse;whiteSpace=wrap;html=1;aspect=fixed;fillColor=none;align=center;horizontal=1;verticalAlign=top;labelPosition=center;verticalLabelPosition=middle;" parent="1" vertex="1">
          <mxGeometry x="867.5" y="428" width="30" height="30" as="geometry" />
        </mxCell>
        <mxCell id="SnB1N_KesckS_-LBV5Pf-62" value="&lt;span style=&quot;text-wrap: nowrap;&quot;&gt;Name&lt;/span&gt;" style="ellipse;whiteSpace=wrap;html=1;aspect=fixed;fillColor=none;" parent="1" vertex="1">
          <mxGeometry x="878" y="460" width="40" height="40" as="geometry" />
        </mxCell>
        <mxCell id="SnB1N_KesckS_-LBV5Pf-63" value="&lt;span style=&quot;text-wrap: nowrap;&quot;&gt;Description&lt;/span&gt;" style="ellipse;whiteSpace=wrap;html=1;aspect=fixed;fillColor=none;" parent="1" vertex="1">
          <mxGeometry x="908" y="488" width="67" height="67" as="geometry" />
        </mxCell>
        <mxCell id="SnB1N_KesckS_-LBV5Pf-64" value="&lt;span style=&quot;text-wrap: nowrap;&quot;&gt;Is_Private&lt;/span&gt;" style="ellipse;whiteSpace=wrap;html=1;aspect=fixed;fillColor=none;" parent="1" vertex="1">
          <mxGeometry x="848" y="538" width="60" height="60" as="geometry" />
        </mxCell>
        <mxCell id="SnB1N_KesckS_-LBV5Pf-65" value="" style="endArrow=none;html=1;rounded=0;strokeWidth=1.5;strokeColor=#00ff00;jumpSize=6;endSize=6;" parent="1" edge="1">
          <mxGeometry width="50" height="50" relative="1" as="geometry">
            <mxPoint x="877.5" y="450" as="sourcePoint" />
            <mxPoint x="887.5" y="450" as="targetPoint" />
          </mxGeometry>
        </mxCell>
        <mxCell id="SnB1N_KesckS_-LBV5Pf-66" value="&lt;span style=&quot;text-wrap: nowrap;&quot;&gt;Username&lt;/span&gt;" style="ellipse;whiteSpace=wrap;html=1;fillColor=none;" parent="1" vertex="1">
          <mxGeometry x="127.5" y="580.5" width="60" height="52" as="geometry" />
        </mxCell>
        <mxCell id="SnB1N_KesckS_-LBV5Pf-67" value="" style="endArrow=none;html=1;rounded=0;entryX=0.25;entryY=1;entryDx=0;entryDy=0;exitX=1;exitY=0;exitDx=0;exitDy=0;" parent="1" source="SnB1N_KesckS_-LBV5Pf-66" target="SnB1N_KesckS_-LBV5Pf-39" edge="1">
          <mxGeometry width="50" height="50" relative="1" as="geometry">
            <mxPoint x="233.5" y="608" as="sourcePoint" />
            <mxPoint x="262.5" y="528" as="targetPoint" />
            <Array as="points" />
          </mxGeometry>
        </mxCell>
        <mxCell id="SnB1N_KesckS_-LBV5Pf-68" value="&lt;i&gt;&lt;font style=&quot;font-size: 16px;&quot;&gt;JOINS&lt;/font&gt;&lt;/i&gt;" style="html=1;whiteSpace=wrap;aspect=fixed;shape=isoRectangle;fillColor=none;" parent="1" vertex="1">
          <mxGeometry x="472.5" y="562" width="133.34" height="80" as="geometry" />
        </mxCell>
        <mxCell id="SnB1N_KesckS_-LBV5Pf-69" value="" style="endArrow=none;html=1;rounded=0;entryX=0.007;entryY=0.499;entryDx=0;entryDy=0;entryPerimeter=0;exitX=0.75;exitY=1;exitDx=0;exitDy=0;" parent="1" source="SnB1N_KesckS_-LBV5Pf-39" target="SnB1N_KesckS_-LBV5Pf-68" edge="1">
          <mxGeometry width="50" height="50" relative="1" as="geometry">
            <mxPoint x="352.5" y="560" as="sourcePoint" />
            <mxPoint x="452.5" y="650" as="targetPoint" />
            <Array as="points">
              <mxPoint x="335" y="600" />
            </Array>
          </mxGeometry>
        </mxCell>
        <mxCell id="SnB1N_KesckS_-LBV5Pf-70" value="" style="endArrow=none;html=1;rounded=0;exitX=0.994;exitY=0.498;exitDx=0;exitDy=0;exitPerimeter=0;entryX=0.5;entryY=1;entryDx=0;entryDy=0;" parent="1" source="SnB1N_KesckS_-LBV5Pf-68" target="SnB1N_KesckS_-LBV5Pf-40" edge="1">
          <mxGeometry width="50" height="50" relative="1" as="geometry">
            <mxPoint x="602.51" y="642" as="sourcePoint" />
            <mxPoint x="777.5" y="560" as="targetPoint" />
            <Array as="points">
              <mxPoint x="778" y="602" />
            </Array>
          </mxGeometry>
        </mxCell>
        <mxCell id="SnB1N_KesckS_-LBV5Pf-71" value="(0, n)" style="text;html=1;align=center;verticalAlign=middle;whiteSpace=wrap;rounded=0;" parent="1" vertex="1">
          <mxGeometry x="382.5" y="601" width="60" height="30" as="geometry" />
        </mxCell>
        <mxCell id="SnB1N_KesckS_-LBV5Pf-72" value="(0, n)" style="text;html=1;align=center;verticalAlign=middle;whiteSpace=wrap;rounded=0;" parent="1" vertex="1">
          <mxGeometry x="632.5" y="602.5" width="60" height="30" as="geometry" />
        </mxCell>
        <mxCell id="SnB1N_KesckS_-LBV5Pf-73" value="SendMessages" style="html=1;whiteSpace=wrap;aspect=fixed;shape=isoRectangle;fillColor=none;" parent="1" vertex="1">
          <mxGeometry x="472.5" y="360" width="133.34" height="80" as="geometry" />
        </mxCell>
        <mxCell id="SnB1N_KesckS_-LBV5Pf-74" value="" style="endArrow=none;html=1;rounded=0;exitX=0.006;exitY=0.497;exitDx=0;exitDy=0;exitPerimeter=0;entryX=0.519;entryY=0.007;entryDx=0;entryDy=0;entryPerimeter=0;" parent="1" source="SnB1N_KesckS_-LBV5Pf-73" target="SnB1N_KesckS_-LBV5Pf-39" edge="1">
          <mxGeometry width="50" height="50" relative="1" as="geometry">
            <mxPoint x="470" y="380" as="sourcePoint" />
            <mxPoint x="310" y="450" as="targetPoint" />
            <Array as="points">
              <mxPoint x="310" y="400" />
            </Array>
          </mxGeometry>
        </mxCell>
        <mxCell id="SnB1N_KesckS_-LBV5Pf-75" value="" style="endArrow=none;html=1;rounded=0;entryX=1.002;entryY=0.498;entryDx=0;entryDy=0;exitX=0.445;exitY=0.001;exitDx=0;exitDy=0;exitPerimeter=0;entryPerimeter=0;" parent="1" source="SnB1N_KesckS_-LBV5Pf-40" target="SnB1N_KesckS_-LBV5Pf-73" edge="1">
          <mxGeometry width="50" height="50" relative="1" as="geometry">
            <mxPoint x="825" y="344" as="sourcePoint" />
            <mxPoint x="660" y="428" as="targetPoint" />
            <Array as="points">
              <mxPoint x="770" y="400" />
            </Array>
          </mxGeometry>
        </mxCell>
        <mxCell id="SnB1N_KesckS_-LBV5Pf-77" value="(0, n)" style="text;html=1;align=center;verticalAlign=middle;whiteSpace=wrap;rounded=0;" parent="1" vertex="1">
          <mxGeometry x="390" y="364" width="60" height="30" as="geometry" />
        </mxCell>
        <mxCell id="SnB1N_KesckS_-LBV5Pf-78" value="(0, n)" style="text;html=1;align=center;verticalAlign=middle;whiteSpace=wrap;rounded=0;" parent="1" vertex="1">
          <mxGeometry x="642.5" y="364" width="60" height="30" as="geometry" />
        </mxCell>
        <mxCell id="SnB1N_KesckS_-LBV5Pf-79" value="&lt;span style=&quot;text-wrap: nowrap;&quot;&gt;Content&lt;/span&gt;" style="ellipse;whiteSpace=wrap;html=1;aspect=fixed;fillColor=none;" parent="1" vertex="1">
          <mxGeometry x="560" y="320" width="50" height="50" as="geometry" />
        </mxCell>
        <mxCell id="SnB1N_KesckS_-LBV5Pf-80" value="&lt;span style=&quot;text-wrap: nowrap;&quot;&gt;Date&lt;/span&gt;" style="ellipse;whiteSpace=wrap;html=1;aspect=fixed;fillColor=none;" parent="1" vertex="1">
          <mxGeometry x="472.5" y="325" width="40" height="40" as="geometry" />
        </mxCell>
        <mxCell id="5ZM6gTWE4wheS7UYXjDe-1" value="" style="endArrow=none;html=1;rounded=0;exitX=0.742;exitY=0.255;exitDx=0;exitDy=0;entryX=0.5;entryY=1;entryDx=0;entryDy=0;exitPerimeter=0;" edge="1" parent="1" source="SnB1N_KesckS_-LBV5Pf-73" target="SnB1N_KesckS_-LBV5Pf-79">
          <mxGeometry width="50" height="50" relative="1" as="geometry">
            <mxPoint x="585" y="344" as="sourcePoint" />
            <mxPoint x="620" y="320" as="targetPoint" />
            <Array as="points" />
          </mxGeometry>
        </mxCell>
        <mxCell id="5ZM6gTWE4wheS7UYXjDe-2" value="" style="endArrow=none;html=1;rounded=0;exitX=0.287;exitY=0.219;exitDx=0;exitDy=0;entryX=0.5;entryY=1;entryDx=0;entryDy=0;exitPerimeter=0;" edge="1" parent="1" source="SnB1N_KesckS_-LBV5Pf-73" target="SnB1N_KesckS_-LBV5Pf-80">
          <mxGeometry width="50" height="50" relative="1" as="geometry">
            <mxPoint x="532.17" y="358" as="sourcePoint" />
            <mxPoint x="546.17" y="334" as="targetPoint" />
            <Array as="points" />
          </mxGeometry>
        </mxCell>
        <mxCell id="5ZM6gTWE4wheS7UYXjDe-3" value="IsInvited" style="html=1;whiteSpace=wrap;aspect=fixed;shape=isoRectangle;fillColor=none;" vertex="1" parent="1">
          <mxGeometry x="476.66" y="245" width="133.34" height="80" as="geometry" />
        </mxCell>
        <mxCell id="5ZM6gTWE4wheS7UYXjDe-4" value="" style="endArrow=none;html=1;rounded=0;entryX=0.25;entryY=0;entryDx=0;entryDy=0;exitX=0.005;exitY=0.501;exitDx=0;exitDy=0;exitPerimeter=0;" edge="1" parent="1" source="5ZM6gTWE4wheS7UYXjDe-3" target="SnB1N_KesckS_-LBV5Pf-39">
          <mxGeometry width="50" height="50" relative="1" as="geometry">
            <mxPoint x="470" y="200" as="sourcePoint" />
            <mxPoint x="320" y="469" as="targetPoint" />
            <Array as="points">
              <mxPoint x="280" y="285" />
            </Array>
          </mxGeometry>
        </mxCell>
        <mxCell id="5ZM6gTWE4wheS7UYXjDe-5" value="" style="endArrow=none;html=1;rounded=0;entryX=0.75;entryY=0;entryDx=0;entryDy=0;exitX=0.996;exitY=0.499;exitDx=0;exitDy=0;exitPerimeter=0;" edge="1" parent="1" source="5ZM6gTWE4wheS7UYXjDe-3" target="SnB1N_KesckS_-LBV5Pf-40">
          <mxGeometry width="50" height="50" relative="1" as="geometry">
            <mxPoint x="610" y="200" as="sourcePoint" />
            <mxPoint x="642.5" y="468" as="targetPoint" />
            <Array as="points">
              <mxPoint x="800" y="285" />
            </Array>
          </mxGeometry>
        </mxCell>
        <mxCell id="5ZM6gTWE4wheS7UYXjDe-6" value="(0, n)" style="text;html=1;align=center;verticalAlign=middle;whiteSpace=wrap;rounded=0;" vertex="1" parent="1">
          <mxGeometry x="390" y="245" width="60" height="30" as="geometry" />
        </mxCell>
        <mxCell id="5ZM6gTWE4wheS7UYXjDe-7" value="(0, n)" style="text;html=1;align=center;verticalAlign=middle;whiteSpace=wrap;rounded=0;" vertex="1" parent="1">
          <mxGeometry x="642.5" y="245" width="60" height="30" as="geometry" />
        </mxCell>
        <mxCell id="5ZM6gTWE4wheS7UYXjDe-10" value="&lt;i&gt;&lt;font style=&quot;font-size: 16px;&quot;&gt;Has&lt;/font&gt;&lt;/i&gt;" style="html=1;whiteSpace=wrap;aspect=fixed;shape=isoRectangle;fillColor=none;" vertex="1" parent="1">
          <mxGeometry x="734.1600000000001" y="670" width="133.34" height="80" as="geometry" />
        </mxCell>
        <mxCell id="5ZM6gTWE4wheS7UYXjDe-11" value="&lt;i style=&quot;&quot;&gt;&lt;font style=&quot;font-size: 20px;&quot;&gt;ROLE&lt;/font&gt;&lt;/i&gt;" style="rounded=0;whiteSpace=wrap;html=1;fillColor=none;" vertex="1" parent="1">
          <mxGeometry x="476.65999999999997" y="670" width="110" height="80" as="geometry" />
        </mxCell>
        <mxCell id="5ZM6gTWE4wheS7UYXjDe-12" value="&lt;i&gt;&lt;font style=&quot;font-size: 16px;&quot;&gt;IsAssigned&lt;/font&gt;&lt;/i&gt;" style="html=1;whiteSpace=wrap;aspect=fixed;shape=isoRectangle;fillColor=none;" vertex="1" parent="1">
          <mxGeometry x="240.82999999999998" y="670" width="133.34" height="80" as="geometry" />
        </mxCell>
        <mxCell id="5ZM6gTWE4wheS7UYXjDe-14" value="" style="endArrow=none;html=1;rounded=0;exitX=0.5;exitY=1;exitDx=0;exitDy=0;entryX=0.5;entryY=0.019;entryDx=0;entryDy=0;entryPerimeter=0;" edge="1" parent="1" source="SnB1N_KesckS_-LBV5Pf-39" target="5ZM6gTWE4wheS7UYXjDe-12">
          <mxGeometry width="50" height="50" relative="1" as="geometry">
            <mxPoint x="345" y="548" as="sourcePoint" />
            <mxPoint x="360" y="680" as="targetPoint" />
            <Array as="points" />
          </mxGeometry>
        </mxCell>
        <mxCell id="5ZM6gTWE4wheS7UYXjDe-15" value="" style="endArrow=none;html=1;rounded=0;exitX=0.995;exitY=0.497;exitDx=0;exitDy=0;entryX=0;entryY=0.5;entryDx=0;entryDy=0;exitPerimeter=0;" edge="1" parent="1" source="5ZM6gTWE4wheS7UYXjDe-12" target="5ZM6gTWE4wheS7UYXjDe-11">
          <mxGeometry width="50" height="50" relative="1" as="geometry">
            <mxPoint x="318" y="548" as="sourcePoint" />
            <mxPoint x="367" y="692" as="targetPoint" />
            <Array as="points" />
          </mxGeometry>
        </mxCell>
        <mxCell id="5ZM6gTWE4wheS7UYXjDe-16" value="" style="endArrow=none;html=1;rounded=0;exitX=1;exitY=0.5;exitDx=0;exitDy=0;entryX=0.011;entryY=0.499;entryDx=0;entryDy=0;entryPerimeter=0;" edge="1" parent="1" source="5ZM6gTWE4wheS7UYXjDe-11" target="5ZM6gTWE4wheS7UYXjDe-10">
          <mxGeometry width="50" height="50" relative="1" as="geometry">
            <mxPoint x="585" y="719.8" as="sourcePoint" />
            <mxPoint x="700" y="720" as="targetPoint" />
            <Array as="points" />
          </mxGeometry>
        </mxCell>
        <mxCell id="5ZM6gTWE4wheS7UYXjDe-21" value="" style="endArrow=none;html=1;rounded=0;exitX=0.5;exitY=1;exitDx=0;exitDy=0;entryX=0.501;entryY=0.022;entryDx=0;entryDy=0;entryPerimeter=0;" edge="1" parent="1" target="5ZM6gTWE4wheS7UYXjDe-10">
          <mxGeometry width="50" height="50" relative="1" as="geometry">
            <mxPoint x="801" y="538" as="sourcePoint" />
            <mxPoint x="800" y="670" as="targetPoint" />
            <Array as="points" />
          </mxGeometry>
        </mxCell>
        <mxCell id="5ZM6gTWE4wheS7UYXjDe-22" value="(0, n)" style="text;html=1;align=center;verticalAlign=middle;whiteSpace=wrap;rounded=0;" vertex="1" parent="1">
          <mxGeometry x="400" y="680" width="60" height="30" as="geometry" />
        </mxCell>
        <mxCell id="5ZM6gTWE4wheS7UYXjDe-23" value="(0, n)" style="text;html=1;align=center;verticalAlign=middle;whiteSpace=wrap;rounded=0;" vertex="1" parent="1">
          <mxGeometry x="240.82999999999998" y="650" width="60" height="30" as="geometry" />
        </mxCell>
        <mxCell id="5ZM6gTWE4wheS7UYXjDe-24" value="(0, n)" style="text;html=1;align=center;verticalAlign=middle;whiteSpace=wrap;rounded=0;" vertex="1" parent="1">
          <mxGeometry x="807.5" y="640" width="60" height="30" as="geometry" />
        </mxCell>
        <mxCell id="5ZM6gTWE4wheS7UYXjDe-25" value="(1, n)" style="text;html=1;align=center;verticalAlign=middle;whiteSpace=wrap;rounded=0;" vertex="1" parent="1">
          <mxGeometry x="642.5" y="670" width="60" height="30" as="geometry" />
        </mxCell>
        <mxCell id="5ZM6gTWE4wheS7UYXjDe-27" value="&lt;span style=&quot;text-wrap: nowrap;&quot;&gt;Description&lt;/span&gt;" style="ellipse;whiteSpace=wrap;html=1;fillColor=none;" vertex="1" parent="1">
          <mxGeometry x="560" y="760" width="64.16" height="50" as="geometry" />
        </mxCell>
        <mxCell id="5ZM6gTWE4wheS7UYXjDe-29" value="&lt;span style=&quot;text-wrap: nowrap;&quot;&gt;ID&lt;/span&gt;" style="ellipse;whiteSpace=wrap;html=1;fillColor=none;" vertex="1" parent="1">
          <mxGeometry x="460" y="765" width="30" height="30" as="geometry" />
        </mxCell>
        <mxCell id="5ZM6gTWE4wheS7UYXjDe-30" value="" style="endArrow=none;html=1;rounded=0;entryX=0;entryY=1;entryDx=0;entryDy=0;exitX=0.5;exitY=0;exitDx=0;exitDy=0;" edge="1" parent="1" source="5ZM6gTWE4wheS7UYXjDe-29" target="5ZM6gTWE4wheS7UYXjDe-11">
          <mxGeometry width="50" height="50" relative="1" as="geometry">
            <mxPoint x="443" y="760" as="sourcePoint" />
            <mxPoint x="535.16" y="790" as="targetPoint" />
            <Array as="points" />
          </mxGeometry>
        </mxCell>
        <mxCell id="5ZM6gTWE4wheS7UYXjDe-31" value="" style="endArrow=none;html=1;rounded=0;entryX=0.5;entryY=1;entryDx=0;entryDy=0;exitX=0.5;exitY=0;exitDx=0;exitDy=0;" edge="1" parent="1" target="5ZM6gTWE4wheS7UYXjDe-11">
          <mxGeometry width="50" height="50" relative="1" as="geometry">
            <mxPoint x="531.6600000000001" y="765" as="sourcePoint" />
            <mxPoint x="487" y="760" as="targetPoint" />
            <Array as="points" />
          </mxGeometry>
        </mxCell>
        <mxCell id="5ZM6gTWE4wheS7UYXjDe-32" value="" style="endArrow=none;html=1;rounded=0;entryX=0.75;entryY=1;entryDx=0;entryDy=0;exitX=0;exitY=0;exitDx=0;exitDy=0;" edge="1" parent="1" source="5ZM6gTWE4wheS7UYXjDe-27" target="5ZM6gTWE4wheS7UYXjDe-11">
          <mxGeometry width="50" height="50" relative="1" as="geometry">
            <mxPoint x="465" y="795" as="sourcePoint" />
            <mxPoint x="497" y="770" as="targetPoint" />
            <Array as="points" />
          </mxGeometry>
        </mxCell>
        <mxCell id="5ZM6gTWE4wheS7UYXjDe-33" value="" style="endArrow=none;html=1;rounded=0;strokeWidth=1.5;strokeColor=#00ff00;" edge="1" parent="1">
          <mxGeometry width="50" height="50" relative="1" as="geometry">
            <mxPoint x="469.75" y="790" as="sourcePoint" />
            <mxPoint x="480" y="790" as="targetPoint" />
          </mxGeometry>
        </mxCell>
        <mxCell id="5ZM6gTWE4wheS7UYXjDe-34" value="&lt;span style=&quot;text-wrap: nowrap;&quot;&gt;Name&lt;/span&gt;" style="ellipse;whiteSpace=wrap;html=1;fillColor=none;" vertex="1" parent="1">
          <mxGeometry x="509.98999999999995" y="765" width="43.34" height="35" as="geometry" />
        </mxCell>
        <mxCell id="5ZM6gTWE4wheS7UYXjDe-35" value="&lt;span style=&quot;text-wrap: nowrap;&quot;&gt;Link&lt;/span&gt;" style="ellipse;whiteSpace=wrap;html=1;aspect=fixed;fillColor=none;" vertex="1" parent="1">
          <mxGeometry x="584.1600000000001" y="220" width="40" height="40" as="geometry" />
        </mxCell>
        <mxCell id="5ZM6gTWE4wheS7UYXjDe-36" value="" style="endArrow=none;html=1;rounded=0;exitX=0.753;exitY=0.263;exitDx=0;exitDy=0;entryX=0;entryY=1;entryDx=0;entryDy=0;exitPerimeter=0;" edge="1" parent="1" source="5ZM6gTWE4wheS7UYXjDe-3" target="5ZM6gTWE4wheS7UYXjDe-35">
          <mxGeometry width="50" height="50" relative="1" as="geometry">
            <mxPoint x="572.66" y="270" as="sourcePoint" />
            <mxPoint x="586.66" y="260" as="targetPoint" />
            <Array as="points" />
          </mxGeometry>
        </mxCell>
      </root>
    </mxGraphModel>
  </diagram>
</mxfile>
